<?xml version="1.0"?>
<svg xmlns="http://www.w3.org/2000/svg" xmlns:xlink="http://www.w3.org/1999/xlink" xmlns:svgjs="http://svgjs.com/svgjs" version="1.1" width="512" height="512" x="0" y="0" viewBox="0 0 55 60" style="enable-background:new 0 0 512 512" xml:space="preserve" class=""><g><g xmlns="http://www.w3.org/2000/svg" id="Page-1" fill="none" fill-rule="evenodd"><g id="036---Brain-Wired" fill="rgb(0,0,0)" fill-rule="nonzero" transform="translate(0 -1)"><path id="Shape" d="m47.045 6.962c-7.88-6.2-14.67-7.337-26.9-4.515-3.322.766-7.081 1.935-9.79 4.8-1.76408371 1.88615676-3.12512998 4.1121479-4 6.542-.37139639 1.0699124-.67401353 2.1624739-.906 3.271l-.079.346c-.22161553.8072892-.51754681 1.5923106-.884 2.345-.53234497.9106108-.81582734 1.945218-.822 3 .20220961.8930842.71857797 1.6837843 1.455 2.228.489.449.811.765.814 1.053-.0426549.1625016-.10760496.3183145-.193.463-.15987852.28395-.27490331.5909076-.341.91-.13667315 1.1992847-.62676198 2.3308748-1.408 3.251-3.141 3.384-4.038 4.551-3.928 5.759.17127646.8394853.70499981 1.560268 1.458 1.969.32967655.2303902.67786645.4330829 1.041.606.43.22 1.151.588 1.2.851.06523252.3388567.02654137.689517-.111 1.006-.147.314-.3.584-.433.82-.39.69-.978 1.733-.056 2.511.216.191.586.482.923.74-.25085003.4395097-.36275882.9446681-.321 1.449.05266952.3912911.26521059.743233.587.972.223.159.461.3.7.433.586.335.814.491.893.8.07246024.3741394.04345662.7608544-.084 1.12-.33145395 1.1753602-.2749925 2.4262792.161 3.567.51354408 1.8999411 2.42684791 3.0633178 4.35 2.645 2.8478765-.6883116 5.656333-1.5305481 8.413-2.523 1.38.823 2.692 2.823 3.638 5.574.4131646 1.2188198 1.5550632 2.0404886 2.842 2.045h20.166c1.0382387-.0007248 2.0022976-.5382207 2.5487514-1.4210164.5464538-.8827958.5976113-1.9853811.1352486-2.9149836-1.248833-2.777965-2.02614-5.7445739-2.3-8.778-.3548274-2.990845.0939069-6.0222181 1.3-8.782.7190329-1.4931215 1.6057444-2.8995137 2.643-4.192 1.978-2.673 4.22-5.7 4.293-10.855.0595593-2.866604-.291672-5.7269669-1.043-8.494-1.0066632-3.4354666-3.0982282-6.45283509-5.962-8.601zm1.106 26.76c-1.127994 1.4134085-2.0902735 2.9514451-2.868 4.584-1.3493928 3.0857763-1.8519743 6.4754401-1.456 9.82.2997694 3.2642946 1.1448212 6.45521 2.5 9.44.1489803.309252.1289301.6733044-.0531102.9643254-.1820404.291021-.5006259.4683327-.8438898.4696746h-20.166c-.4325284-.0037611-.8149513-.2817408-.952-.692-.6513546-2.1228866-1.7735868-4.071325-3.283-5.7l.747-.262c.739-.26 1.3-.456 1.576-.544 4.278-1.346 6.418-3.3 6.359-5.792.0011782-.2674774-.1078074-.5236439-.3013377-.7082828-.1935304-.1846389-.4545358-.2814649-.7216623-.2677172-.2652396.0060303-.5172116.1172157-.7004495.309081s-.2827211.4486826-.2765505.713919c.024 1.031-.816 2.534-4.962 3.838-.292.092-.87.295-1.636.564-.717.252-1.6.564-2.575.9h-.008c-2.8064736 1.0184836-5.6659841 1.8844153-8.566 2.594-.93504336.181199-1.84495523-.4130111-2.055-1.342-.31226622-.7816048-.3475559-1.6465547-.1-2.451.20653589-.6723718.23308611-1.3871589.077-2.073-.28641218-.9171504-.95766294-1.6643229-1.839-2.047-.072-.041-.144-.081-.215-.123.1064341-.2196804.2347499-.428068.383-.622.16571468-.2123292.23877088-.4825289.20263124-.7494353-.03613964-.2669063-.1784191-.5079491-.39463124-.6685647-.24-.178-.81-.607-1.22-.935.051-.094.108-.2.161-.29.153-.271.329-.585.5-.943.31898079-.6991592.41297567-1.4801204.269-2.235-.233-1.227-1.4-1.824-2.255-2.261-.26202828-.1237986-.5146961-.2665091-.756-.427-.234337-.1628795-.45536548-.3441162-.661-.542.017-.578 2.217-2.951 3.4-4.226 1.05083211-1.2040765 1.71741103-2.6949984 1.914-4.281.0424573-.1152125.09325865-.227176.152-.335.2496941-.4225236.39025543-.9005696.409-1.391-.10026544-1.0103608-.63543442-1.9270111-1.466-2.511-.4-.37-.784-.72-.827-1.028.12134316-.6664309.34676502-1.3096256.668-1.906.41858688-.8692024.75343227-1.7762985 1-2.709l.081-.349c.21395743-1.0264434.49217176-2.0384356.833-3.03.78311822-2.1753042 2.0008397-4.1684342 3.579-5.858 2.337-2.473 5.6-3.493 8.785-4.227 13.047-3.008 18.729-.964 25.222 4.143 2.5390678 1.8790251 4.3917578 4.5389736 5.274 7.572.6985506 2.5803426 1.0241858 5.2473851.967 7.92-.063 4.509-1.927 7.028-3.901 9.694z" fill="#0ac94c" data-original="#000000" style="" class=""/><path id="Shape" d="m40.134 17.78c1.4427191 1.5316752 3.8003813 1.7489091 5.4986896.5066466 1.6983084-1.2422624 2.2053911-3.5549727 1.1826506-5.3938498s-3.255005-2.6280264-5.2062292-1.8405041-3.0103288 2.905082-2.470111 4.9387073c-1.2328749 1.069255-2.2395945 2.3741486-2.961 3.838-.6398014-.4793031-1.3355892-.878911-2.072-1.19-.847-1.612-.694-3.817-.306-5.659.068 0 .132.02.2.02 2.0118197.0159335 3.7275187-1.4536304 4.0208477-3.44401498.293329-1.99038454-.9254876-3.89241696-2.8563728-4.45753183s-3.9828766.37964562-4.8089701 2.21410525c-.8260934 1.83445962-.1734566 3.99716776 1.5294952 5.06844156-.4312673 1.7513096-.4993321 3.5723834-.2 5.351-.85-.2666667-1.7833333-.516-2.8-.748-.92-.207-1.795-.383-2.618-.532-.840056-.7337161-1.4728064-1.6750833-1.835-2.73 1.8850816-.7184145 2.942986-2.7254055 2.4703501-4.68659581s-2.328652-3.26594271-4.3340489-3.04677364c-2.005397.21916907-3.5357735 1.89401901-3.5736364 3.91100154-.0378629 2.01698251 1.4285767 3.74808891 3.4243352 4.04236791.2008882.7029039.4863065 1.3788416.85 2.013-1.978-.29-3.844-.5-5.345-.643-.3383897-1.9946128-2.1076474-3.4261008-4.1289574-3.3406965-2.0213099.0854044-3.663511 1.6610334-3.83244225 3.6770815-.16893128 2.0160481 1.18815665 3.8429973 3.16706715 4.2635933 1.9789105.4205959 3.9617219-.696494 4.6273325-2.6069783 2.13.2 5 .54 7.864 1.06l.16.03c-1.00939.8032761-1.9040331 1.7409859-2.659 2.787-.3632338-.1145934-.7411678-.1758982-1.122-.182-1.9124543-.0070086-3.5644012 1.335892-3.9480839 3.2094762-.3836827 1.8735843.60741 3.7577409 2.36867 4.5030553s3.8037575.1448857 4.8814834-1.4349995c1.077726-1.5798851.8915011-3.700647-.4450695-5.068532.8318037-1.1661394 1.8970202-2.1465608 3.128-2.879.2375484-.1287029.484604-.2390254.739-.33 1.4135043.3147106 2.8003615.7389926 4.148 1.269.0308537.017259.0625609.0329457.095.047l.017.008.016.008c.8448694.3079405 1.6233939.7739013 2.294 1.373.1233087.1229332.2295878.261836.316.413.46.775.359 1.924-.32 3.621-.371.936-.859 1.911-1.376 2.943-1.764 3.521-3.762 7.512-.539 10.1 3.761 3.009 3.894 13.4 3.628 17.148-.0192563.2647229.0675192.5262415.2412096.726942.1736903.2007005.4200448.3241162.6847904.343058h.071c.5257052.0013266.9626765-.4046197 1-.929.043-.593.977-14.573-4.371-18.851-1.825-1.463-.759-3.975 1.076-7.64.446-.889.89-1.8 1.266-2.69 1.0032334-.2433062 2.0603992.0608048 2.781.8-1.1937898 1.6627649-.9646211 3.9538803.5348585 5.347251 1.4994796 1.3933708 3.8012274 1.4540747 5.3720662.1416773 1.5708387-1.3123974 1.9204518-3.5882486.8159646-5.3116258-1.1044873-1.7233773-3.3183237-2.3563512-5.1668893-1.4773025-.9728511-.9479098-2.2533277-1.5155913-3.609-1.6.2934347-1.0517343.2468835-2.1693119-.133-3.193.5740914-1.4408601 1.4496691-2.7422932 2.568-3.817zm2.866-4.78c1.1045695 0 2 .8954305 2 2s-.8954305 2-2 2-2-.8954305-2-2 .8954305-2 2-2zm-9-6c1.1045695 0 2 .8954305 2 2s-.8954305 2-2 2-2-.8954305-2-2 .8954305-2 2-2zm-13 3c0-1.1045695.8954305-2 2-2s2 .8954305 2 2-.8954305 2-2 2-2-.8954305-2-2zm-7 8c-1.1045695 0-2-.8954305-2-2s.8954305-2 2-2 2 .8954305 2 2-.8954305 2-2 2zm8 9c-1.1045695 0-2-.8954305-2-2s.8954305-2 2-2 2 .8954305 2 2-.8954305 2-2 2zm23 3c0 1.1045695-.8954305 2-2 2s-2-.8954305-2-2 .8954305-2 2-2 2 .8954305 2 2z" fill="#0ac94c" data-original="#000000" style="" class=""/></g></g></g></svg>
